<svg width="25" height="23" viewBox="0 0 25 23" fill="none" xmlns="http://www.w3.org/2000/svg">
<path d="M13.5762 7.09023C13.5762 11.0061 10.537 14.1805 6.78808 14.1805C3.03912 14.1805 0 11.0061 0 7.09023C0 3.1744 3.03912 0 6.78808 0C10.537 0 13.5762 3.1744 13.5762 7.09023ZM1.43948 7.09023C1.43948 10.1757 3.83414 12.6769 6.78808 12.6769C9.74202 12.6769 12.1367 10.1757 12.1367 7.09023C12.1367 4.0048 9.74202 1.50356 6.78808 1.50356C3.83414 1.50356 1.43948 4.0048 1.43948 7.09023Z" fill="#4D4D4D"/>
<path d="M7.76025 10.8948H6.76423V4.18782H5.39734L5.84237 3.14746H7.76025V10.8948Z" fill="#4D4D4D"/>
<path d="M15.6076 5.8833C16.8246 5.92269 18.0092 6.30334 19.037 6.98531C20.0649 7.6673 20.8981 8.62551 21.4496 9.75951C22.001 10.8935 22.2501 12.1616 22.171 13.4308C22.092 14.7 21.6874 15.9236 21 16.9733C20.3124 18.0231 19.3672 18.8604 18.2634 19.3974C17.1596 19.9343 15.9378 20.1513 14.7261 20.0256C13.5144 19.8999 12.3574 19.4359 11.3763 18.6825C10.3953 17.9292 9.6263 16.9139 9.15002 15.7433L10.4748 15.1553C10.8501 16.0776 11.456 16.8775 12.229 17.4711C13.002 18.0647 13.9137 18.4303 14.8684 18.5294C15.8232 18.6285 16.7859 18.4575 17.6556 18.0343C18.5253 17.6113 19.2702 16.9515 19.8119 16.1244C20.3536 15.2973 20.6723 14.3331 20.7346 13.3331C20.797 12.333 20.6006 11.3339 20.1662 10.4404C19.7317 9.54682 19.0751 8.79181 18.2652 8.25446C17.4554 7.71709 16.522 7.41718 15.563 7.38613L15.6076 5.8833Z" fill="#4D4D4D"/>
<path d="M13.9983 16.5672L13.2029 15.9411L17.0673 10.5847L15.9756 9.72543L16.9304 9.17432L18.4622 10.3799L13.9983 16.5672Z" fill="#4D4D4D"/>
</svg>
