<svg width="22" height="19" viewBox="0 0 22 19" fill="none" xmlns="http://www.w3.org/2000/svg">
<path fill-rule="evenodd" clip-rule="evenodd" d="M13.3841 0C14.1872 0 14.9391 0.408264 15.3955 1.09217L16.4426 2.66116C16.8989 3.34507 17.6508 3.75333 18.4539 3.75333H19.5857C20.9191 3.75333 22 4.87202 22 6.252V16.4701C22 17.8673 20.9056 19 19.5556 19H2.44444C1.09442 19 0 17.8673 0 16.4701V6.28319C0 4.88599 1.09442 3.75333 2.44444 3.75333H3.61518C4.43434 3.75333 5.19904 3.32869 5.65197 2.62229L6.60813 1.13105C7.06106 0.424646 7.82576 0 8.64492 0H13.3841ZM13.6156 2.48335C13.5135 2.32834 13.3421 2.23529 13.1585 2.23529H8.87789C8.69075 2.23529 8.51646 2.33197 8.41526 2.49191L7.59416 3.78956C6.71722 5.17544 5.27216 6.04107 3.70029 6.13812L3.40419 6.14725H2.75C2.44624 6.14725 2.2 6.39744 2.2 6.70607V16.2059C2.2 16.5145 2.44624 16.7647 2.75 16.7647H19.25C19.5538 16.7647 19.8 16.5145 19.8 16.2059V6.70539C19.8 6.39651 19.5534 6.14621 19.2494 6.14657L18.6669 6.14725C17.112 6.14725 15.6504 5.39339 14.7011 4.11615L14.5292 3.8706L13.6156 2.48335ZM11 4.47059C14.0376 4.47059 16.5 6.97253 16.5 10.0588C16.5 13.1451 14.0376 15.6471 11 15.6471C7.96243 15.6471 5.5 13.1451 5.5 10.0588C5.5 6.97253 7.96243 4.47059 11 4.47059ZM11 6.70588C9.17746 6.70588 7.7 8.20705 7.7 10.0588C7.7 11.9106 9.17746 13.4118 11 13.4118C12.8225 13.4118 14.3 11.9106 14.3 10.0588C14.3 8.20705 12.8225 6.70588 11 6.70588Z" fill="white"/>
</svg>
