<svg width="35" height="30" viewBox="0 0 35 30" fill="none" xmlns="http://www.w3.org/2000/svg">
<g clip-path="url(#clip0_22_9090)">
<path d="M19.0066 9.43985C19.0066 14.3772 14.7519 18.3797 9.50331 18.3797C4.25477 18.3797 0 14.3772 0 9.43985C0 4.5025 4.25477 0.5 9.50331 0.5C14.7519 0.5 19.0066 4.5025 19.0066 9.43985ZM2.01528 9.43985C2.01528 13.3302 5.36779 16.4839 9.50331 16.4839C13.6388 16.4839 16.9913 13.3302 16.9913 9.43985C16.9913 5.54953 13.6388 2.39579 9.50331 2.39579C5.36779 2.39579 2.01528 5.54953 2.01528 9.43985Z" fill="#F7CD4D"/>
<path d="M10.8645 14.2367H9.47004V5.78002H7.5564L8.17944 4.46826H10.8645V14.2367Z" fill="#F7CD4D"/>
<path d="M21.8507 7.91797C23.5545 7.96764 25.2129 8.44758 26.6519 9.30746C28.0908 10.1674 29.2574 11.3755 30.0295 12.8054C30.8014 14.2352 31.1502 15.8341 31.0394 17.4344C30.9288 19.0346 30.3623 20.5774 29.4 21.901C28.4373 23.2246 27.1141 24.2804 25.5687 24.9574C24.0234 25.6345 22.3129 25.9081 20.6165 25.7496C18.9201 25.5911 17.3003 25.0061 15.9268 24.056C14.5534 23.1062 13.4768 21.8261 12.8101 20.3502L14.6648 19.6087C15.1902 20.7716 16.0384 21.7802 17.1206 22.5286C18.2028 23.2772 19.4792 23.7381 20.8158 23.8631C22.1525 23.988 23.5003 23.7724 24.7178 23.2388C25.9354 22.7055 26.9782 21.8736 27.7367 20.8306C28.4951 19.7877 28.9413 18.5721 29.0284 17.3112C29.1158 16.0502 28.8409 14.7904 28.2327 13.6638C27.6245 12.5372 26.7052 11.5852 25.5713 10.9077C24.4376 10.2301 23.1308 9.85199 21.7883 9.81285L21.8507 7.91797Z" fill="#F7CD4D"/>
<path d="M19.5978 21.3894L18.4841 20.5999L23.8944 13.8461L22.366 12.7628L23.7027 12.0679L25.8472 13.588L19.5978 21.3894Z" fill="#F7CD4D"/>
</g>
<defs>
<clipPath id="clip0_22_9090">
<rect width="35" height="29" fill="white" transform="translate(0 0.5)"/>
</clipPath>
</defs>
</svg>
