<svg width="24" height="20" viewBox="0 0 24 20" fill="none" xmlns="http://www.w3.org/2000/svg">
<path fill-rule="evenodd" clip-rule="evenodd" d="M16.795 1.14965C16.2971 0.429752 15.4769 0 14.6008 0H9.4307C8.53707 0 7.70285 0.446996 7.20875 1.19057L6.16567 2.7603C5.67156 3.50388 4.83734 3.95088 3.94371 3.95088H2.66654C1.19379 3.95088 -0.00012207 5.14315 -0.00012207 6.61389V17.337C-0.00012207 18.8077 1.19379 20 2.66654 20H21.3332C22.806 20 23.9999 18.8077 23.9999 17.337V6.58105C23.9999 5.12845 22.8207 3.95088 21.3661 3.95088H20.1314C19.2553 3.95088 18.4351 3.52112 17.9372 2.80122L16.795 1.14965ZM11.9999 17.6471C15.3136 17.6471 17.9999 15.0134 17.9999 11.7647C17.9999 8.51597 15.3136 5.88235 11.9999 5.88235C8.68617 5.88235 5.99988 8.51597 5.99988 11.7647C5.99988 15.0134 8.68617 17.6471 11.9999 17.6471Z" fill="#B3B3B3"/>
<path d="M15.5999 11.7647C15.5999 13.7139 13.9881 15.2941 11.9999 15.2941C10.0117 15.2941 8.39988 13.7139 8.39988 11.7647C8.39988 9.81547 10.0117 8.23529 11.9999 8.23529C13.9881 8.23529 15.5999 9.81547 15.5999 11.7647Z" fill="#B3B3B3"/>
</svg>
