<svg width="35" height="29" viewBox="0 0 35 29" fill="none" xmlns="http://www.w3.org/2000/svg">
<path d="M19.0066 8.93985C19.0066 13.8772 14.7519 17.8797 9.50331 17.8797C4.25477 17.8797 0 13.8772 0 8.93985C0 4.0025 4.25477 0 9.50331 0C14.7519 0 19.0066 4.0025 19.0066 8.93985ZM2.01528 8.93985C2.01528 12.8302 5.36779 15.9839 9.50331 15.9839C13.6388 15.9839 16.9913 12.8302 16.9913 8.93985C16.9913 5.04953 13.6388 1.89579 9.50331 1.89579C5.36779 1.89579 2.01528 5.04953 2.01528 8.93985Z" fill="#F7CD4D"/>
<path d="M10.8644 13.7369H9.46992V5.28026H7.55627L8.17932 3.96851H10.8644V13.7369Z" fill="#F7CD4D"/>
<path d="M21.8507 7.41772C23.5545 7.4674 25.2129 7.94733 26.6519 8.80722C28.0908 9.66712 29.2574 10.8753 30.0295 12.3051C30.8014 13.735 31.1502 15.3338 31.0394 16.9341C30.9288 18.5344 30.3623 20.0772 29.4 21.4008C28.4373 22.7244 27.1141 23.7802 25.5687 24.4572C24.0234 25.1342 22.3129 25.4079 20.6165 25.2493C18.9201 25.0908 17.3003 24.5058 15.9268 23.5558C14.5534 22.606 13.4768 21.3259 12.8101 19.85L14.6648 19.1085C15.1902 20.2714 16.0384 21.28 17.1206 22.0284C18.2028 22.7769 19.4792 23.2379 20.8158 23.3628C22.1525 23.4878 23.5003 23.2721 24.7178 22.7386C25.9354 22.2052 26.9782 21.3733 27.7367 20.3304C28.4951 19.2875 28.9413 18.0719 29.0284 16.8109C29.1158 15.55 28.8409 14.2902 28.2327 13.1636C27.6245 12.0369 26.7052 11.085 25.5713 10.4074C24.4376 9.7299 23.1308 9.35174 21.7883 9.3126L21.8507 7.41772Z" fill="#F7CD4D"/>
<path d="M19.5978 20.8891L18.4841 20.0997L23.8944 13.3459L22.366 12.2625L23.7027 11.5676L25.8472 13.0877L19.5978 20.8891Z" fill="#F7CD4D"/>
</svg>
