<svg width="143" height="156" viewBox="0 0 143 156" fill="none" xmlns="http://www.w3.org/2000/svg">
<path d="M2.87642 147V120.818H19.2912V124.219H6.8267V132.196H18.4347V135.584H6.8267V143.599H19.4446V147H2.87642ZM32.5323 147.396C30.6317 147.396 28.9954 146.966 27.6232 146.105C26.2596 145.236 25.2113 144.038 24.4783 142.513C23.7454 140.987 23.3789 139.24 23.3789 137.271C23.3789 135.277 23.7539 133.517 24.5039 131.991C25.2539 130.457 26.3107 129.26 27.6744 128.399C29.038 127.538 30.6445 127.108 32.494 127.108C33.9854 127.108 35.315 127.385 36.4826 127.939C37.6502 128.484 38.592 129.251 39.3079 130.24C40.0323 131.229 40.4627 132.384 40.5991 133.705H36.8789C36.6744 132.784 36.2056 131.991 35.4727 131.327C34.7482 130.662 33.7766 130.33 32.5579 130.33C31.4925 130.33 30.5593 130.611 29.7582 131.173C28.9656 131.727 28.3477 132.52 27.9045 133.551C27.4613 134.574 27.2397 135.784 27.2397 137.182C27.2397 138.614 27.457 139.849 27.8917 140.889C28.3263 141.929 28.94 142.734 29.7326 143.305C30.5337 143.876 31.4755 144.162 32.5579 144.162C33.2823 144.162 33.9386 144.03 34.5266 143.766C35.1232 143.493 35.6218 143.105 36.0224 142.602C36.4315 142.099 36.717 141.494 36.8789 140.787H40.5991C40.4627 142.057 40.0494 143.19 39.359 144.188C38.6687 145.185 37.744 145.969 36.5849 146.54C35.4343 147.111 34.0835 147.396 32.5323 147.396ZM52.9581 147.396C51.1172 147.396 49.5107 146.974 48.1385 146.131C46.7663 145.287 45.701 144.107 44.9425 142.589C44.1839 141.072 43.8047 139.3 43.8047 137.271C43.8047 135.234 44.1839 133.453 44.9425 131.928C45.701 130.402 46.7663 129.217 48.1385 128.374C49.5107 127.53 51.1172 127.108 52.9581 127.108C54.799 127.108 56.4055 127.53 57.7777 128.374C59.1499 129.217 60.2152 130.402 60.9737 131.928C61.7322 133.453 62.1115 135.234 62.1115 137.271C62.1115 139.3 61.7322 141.072 60.9737 142.589C60.2152 144.107 59.1499 145.287 57.7777 146.131C56.4055 146.974 54.799 147.396 52.9581 147.396ZM52.9709 144.188C54.1641 144.188 55.1527 143.872 55.9368 143.241C56.7209 142.611 57.3004 141.771 57.6754 140.723C58.0589 139.675 58.2507 138.52 58.2507 137.259C58.2507 136.006 58.0589 134.855 57.6754 133.807C57.3004 132.75 56.7209 131.902 55.9368 131.263C55.1527 130.624 54.1641 130.304 52.9709 130.304C51.7692 130.304 50.772 130.624 49.9794 131.263C49.1953 131.902 48.6115 132.75 48.228 133.807C47.853 134.855 47.6655 136.006 47.6655 137.259C47.6655 138.52 47.853 139.675 48.228 140.723C48.6115 141.771 49.1953 142.611 49.9794 143.241C50.772 143.872 51.7692 144.188 52.9709 144.188ZM88.4308 129.332H84.4421C84.2887 128.48 84.0032 127.73 83.5856 127.082C83.168 126.435 82.6566 125.885 82.0515 125.433C81.4464 124.982 80.7688 124.641 80.0188 124.411C79.2773 124.18 78.489 124.065 77.6538 124.065C76.1452 124.065 74.7944 124.445 73.6012 125.203C72.4165 125.962 71.479 127.074 70.7887 128.54C70.1069 130.006 69.766 131.795 69.766 133.909C69.766 136.04 70.1069 137.838 70.7887 139.304C71.479 140.77 72.4208 141.878 73.614 142.628C74.8072 143.378 76.1495 143.753 77.641 143.753C78.4677 143.753 79.2518 143.642 79.9933 143.42C80.7433 143.19 81.4208 142.854 82.0259 142.411C82.631 141.967 83.1424 141.426 83.56 140.787C83.9862 140.139 84.2802 139.398 84.4421 138.562L88.4308 138.575C88.2177 139.862 87.8043 141.047 87.1907 142.129C86.5856 143.203 85.8058 144.132 84.8512 144.916C83.9052 145.692 82.8228 146.293 81.604 146.719C80.3853 147.145 79.0558 147.358 77.6154 147.358C75.3484 147.358 73.3285 146.821 71.5558 145.747C69.783 144.665 68.3853 143.118 67.3626 141.107C66.3484 139.095 65.8413 136.696 65.8413 133.909C65.8413 131.114 66.3526 128.714 67.3754 126.712C68.3981 124.7 69.7958 123.158 71.5685 122.084C73.3413 121.001 75.3569 120.46 77.6154 120.46C79.0046 120.46 80.3001 120.661 81.5018 121.061C82.712 121.453 83.7987 122.033 84.7617 122.8C85.7248 123.558 86.5217 124.487 87.1523 125.587C87.783 126.678 88.2092 127.926 88.4308 129.332ZM101.122 147.396C99.2813 147.396 97.6747 146.974 96.3026 146.131C94.9304 145.287 93.8651 144.107 93.1065 142.589C92.348 141.072 91.9688 139.3 91.9688 137.271C91.9688 135.234 92.348 133.453 93.1065 131.928C93.8651 130.402 94.9304 129.217 96.3026 128.374C97.6747 127.53 99.2813 127.108 101.122 127.108C102.963 127.108 104.57 127.53 105.942 128.374C107.314 129.217 108.379 130.402 109.138 131.928C109.896 133.453 110.276 135.234 110.276 137.271C110.276 139.3 109.896 141.072 109.138 142.589C108.379 144.107 107.314 145.287 105.942 146.131C104.57 146.974 102.963 147.396 101.122 147.396ZM101.135 144.188C102.328 144.188 103.317 143.872 104.101 143.241C104.885 142.611 105.464 141.771 105.839 140.723C106.223 139.675 106.415 138.52 106.415 137.259C106.415 136.006 106.223 134.855 105.839 133.807C105.464 132.75 104.885 131.902 104.101 131.263C103.317 130.624 102.328 130.304 101.135 130.304C99.9332 130.304 98.9361 130.624 98.1435 131.263C97.3594 131.902 96.7756 132.75 96.392 133.807C96.017 134.855 95.8295 136.006 95.8295 137.259C95.8295 138.52 96.017 139.675 96.392 140.723C96.7756 141.771 97.3594 142.611 98.1435 143.241C98.9361 143.872 99.9332 144.188 101.135 144.188ZM114.542 147V127.364H118.365V147H114.542ZM116.473 124.334C115.808 124.334 115.237 124.112 114.76 123.669C114.291 123.217 114.056 122.68 114.056 122.058C114.056 121.428 114.291 120.891 114.76 120.447C115.237 119.996 115.808 119.77 116.473 119.77C117.137 119.77 117.704 119.996 118.173 120.447C118.65 120.891 118.889 121.428 118.889 122.058C118.889 122.68 118.65 123.217 118.173 123.669C117.704 124.112 117.137 124.334 116.473 124.334ZM127.33 135.341V147H123.507V127.364H127.176V130.56H127.419C127.871 129.52 128.578 128.685 129.541 128.054C130.513 127.423 131.736 127.108 133.21 127.108C134.548 127.108 135.72 127.389 136.726 127.952C137.732 128.506 138.511 129.332 139.065 130.432C139.619 131.531 139.896 132.891 139.896 134.51V147H136.074V134.97C136.074 133.547 135.703 132.435 134.962 131.634C134.22 130.824 133.202 130.419 131.906 130.419C131.02 130.419 130.232 130.611 129.541 130.994C128.859 131.378 128.318 131.94 127.918 132.682C127.526 133.415 127.33 134.301 127.33 135.341Z" fill="white"/>
<circle cx="72" cy="48" r="48" fill="white"/>
<path d="M51 65.5C51 65.5 52.146 58.5155 55.5 56C61.5 51.5 73 53 76.5 47.5M85.9998 27C91.5 43 91.5 50.5 84 57.5C76.5 64.5 58.4998 60.5 56.4998 57C54.4998 53.5 55.9998 39.5 64.5 38C73.0002 36.5 78.1709 32.8771 85.9998 27Z" stroke="#00C951" stroke-width="3" stroke-linecap="round"/>
<path d="M81.4619 26.282C81.4619 26.282 82.7274 24.0512 82.9073 24.7725C83.0871 25.4937 83.9438 28.9297 83.9438 28.9297" stroke="#F0B100" stroke-linecap="round"/>
<path d="M81.9232 22.2878C84.2848 21.699 86.7437 23.2314 87.378 25.7749C88.0122 28.3185 86.5607 30.8268 84.199 31.4156C81.8373 32.0044 79.3781 30.4712 78.7439 27.9276C78.1099 25.3841 79.5616 22.8767 81.9232 22.2878Z" stroke="#F0B100"/>
<path d="M90.3111 30.3743C90.3111 30.3743 92.7386 31.0704 92.1139 31.4167C91.4892 31.7629 88.5131 33.4126 88.5131 33.4126" stroke="#F0B100" stroke-linecap="round"/>
<mask id="path-7-inside-1_13_116" fill="white">
<path d="M91.7182 27.8325C91.8129 27.5662 92.1069 27.4249 92.3621 27.5462C92.9808 27.8406 93.5341 28.2598 93.9862 28.7794C94.5505 29.4281 94.938 30.2113 95.1114 31.0534C95.2847 31.8956 95.2379 32.7682 94.9755 33.5869C94.7132 34.4057 94.2441 35.143 93.6137 35.7276C92.9832 36.3122 92.2127 36.7244 91.3764 36.9243C90.5402 37.1242 89.6666 37.1051 88.8399 36.8688C88.0132 36.6325 87.2614 36.187 86.6572 35.5754C86.1731 35.0854 85.7968 34.5021 85.5499 33.863C85.4481 33.5994 85.6112 33.3169 85.8838 33.2425C86.1564 33.1682 86.4346 33.3307 86.5433 33.5915C86.7394 34.0618 87.0247 34.4915 87.385 34.8563C87.8656 35.3427 88.4636 35.697 89.1211 35.885C89.7786 36.0729 90.4735 36.0881 91.1386 35.9291C91.8037 35.7701 92.4165 35.4423 92.918 34.9774C93.4194 34.5124 93.7925 33.926 94.0011 33.2747C94.2098 32.6235 94.247 31.9295 94.1092 31.2597C93.9713 30.5899 93.6631 29.9669 93.2142 29.451C92.8777 29.0642 92.4706 28.7474 92.0164 28.5164C91.7646 28.3883 91.6235 28.0987 91.7182 27.8325Z"/>
</mask>
<path d="M91.7182 27.8325C91.8129 27.5662 92.1069 27.4249 92.3621 27.5462C92.9808 27.8406 93.5341 28.2598 93.9862 28.7794C94.5505 29.4281 94.938 30.2113 95.1114 31.0534C95.2847 31.8956 95.2379 32.7682 94.9755 33.5869C94.7132 34.4057 94.2441 35.143 93.6137 35.7276C92.9832 36.3122 92.2127 36.7244 91.3764 36.9243C90.5402 37.1242 89.6666 37.1051 88.8399 36.8688C88.0132 36.6325 87.2614 36.187 86.6572 35.5754C86.1731 35.0854 85.7968 34.5021 85.5499 33.863C85.4481 33.5994 85.6112 33.3169 85.8838 33.2425C86.1564 33.1682 86.4346 33.3307 86.5433 33.5915C86.7394 34.0618 87.0247 34.4915 87.385 34.8563C87.8656 35.3427 88.4636 35.697 89.1211 35.885C89.7786 36.0729 90.4735 36.0881 91.1386 35.9291C91.8037 35.7701 92.4165 35.4423 92.918 34.9774C93.4194 34.5124 93.7925 33.926 94.0011 33.2747C94.2098 32.6235 94.247 31.9295 94.1092 31.2597C93.9713 30.5899 93.6631 29.9669 93.2142 29.451C92.8777 29.0642 92.4706 28.7474 92.0164 28.5164C91.7646 28.3883 91.6235 28.0987 91.7182 27.8325Z" stroke="#F0B100" stroke-width="2" mask="url(#path-7-inside-1_13_116)"/>
</svg>
