<svg width="96" height="96" viewBox="0 0 96 96" fill="none" xmlns="http://www.w3.org/2000/svg">
<circle cx="48" cy="48" r="48" fill="white"/>
<path d="M27 65.5C27 65.5 28.146 58.5155 31.5 56C37.5 51.5 49 53 52.5 47.5M61.9998 27C67.5 43 67.5 50.5 60 57.5C52.5 64.5 34.4998 60.5 32.4998 57C30.4998 53.5 31.9998 39.5 40.5 38C49.0002 36.5 54.1709 32.8771 61.9998 27Z" stroke="#00C951" stroke-width="3" stroke-linecap="round"/>
<path d="M57.4619 26.282C57.4619 26.282 58.7274 24.0512 58.9073 24.7725C59.0871 25.4937 59.9438 28.9297 59.9438 28.9297" stroke="#F0B100" stroke-linecap="round"/>
<path d="M57.9232 22.2878C60.2848 21.699 62.7437 23.2314 63.378 25.7749C64.0122 28.3185 62.5607 30.8268 60.199 31.4156C57.8373 32.0044 55.3781 30.4712 54.7439 27.9276C54.1099 25.3841 55.5616 22.8767 57.9232 22.2878Z" stroke="#F0B100"/>
<path d="M66.3111 30.3743C66.3111 30.3743 68.7386 31.0704 68.1139 31.4167C67.4892 31.7629 64.5131 33.4126 64.5131 33.4126" stroke="#F0B100" stroke-linecap="round"/>
<mask id="path-6-inside-1_12_1655" fill="white">
<path d="M67.7182 27.8325C67.8129 27.5662 68.1069 27.4249 68.3621 27.5462C68.9808 27.8406 69.5341 28.2598 69.9862 28.7794C70.5505 29.4281 70.938 30.2113 71.1114 31.0534C71.2847 31.8956 71.2379 32.7682 70.9755 33.5869C70.7132 34.4057 70.2441 35.143 69.6137 35.7276C68.9832 36.3122 68.2127 36.7244 67.3764 36.9243C66.5402 37.1242 65.6666 37.1051 64.8399 36.8688C64.0132 36.6325 63.2614 36.187 62.6572 35.5754C62.1731 35.0854 61.7968 34.5021 61.5499 33.863C61.4481 33.5994 61.6112 33.3169 61.8838 33.2425C62.1564 33.1682 62.4346 33.3307 62.5433 33.5915C62.7394 34.0618 63.0247 34.4915 63.385 34.8563C63.8656 35.3427 64.4636 35.697 65.1211 35.885C65.7786 36.0729 66.4735 36.0881 67.1386 35.9291C67.8037 35.7701 68.4165 35.4423 68.918 34.9774C69.4194 34.5124 69.7925 33.926 70.0011 33.2747C70.2098 32.6235 70.247 31.9295 70.1092 31.2597C69.9713 30.5899 69.6631 29.9669 69.2142 29.451C68.8777 29.0642 68.4706 28.7474 68.0164 28.5164C67.7646 28.3883 67.6235 28.0987 67.7182 27.8325Z"/>
</mask>
<path d="M67.7182 27.8325C67.8129 27.5662 68.1069 27.4249 68.3621 27.5462C68.9808 27.8406 69.5341 28.2598 69.9862 28.7794C70.5505 29.4281 70.938 30.2113 71.1114 31.0534C71.2847 31.8956 71.2379 32.7682 70.9755 33.5869C70.7132 34.4057 70.2441 35.143 69.6137 35.7276C68.9832 36.3122 68.2127 36.7244 67.3764 36.9243C66.5402 37.1242 65.6666 37.1051 64.8399 36.8688C64.0132 36.6325 63.2614 36.187 62.6572 35.5754C62.1731 35.0854 61.7968 34.5021 61.5499 33.863C61.4481 33.5994 61.6112 33.3169 61.8838 33.2425C62.1564 33.1682 62.4346 33.3307 62.5433 33.5915C62.7394 34.0618 63.0247 34.4915 63.385 34.8563C63.8656 35.3427 64.4636 35.697 65.1211 35.885C65.7786 36.0729 66.4735 36.0881 67.1386 35.9291C67.8037 35.7701 68.4165 35.4423 68.918 34.9774C69.4194 34.5124 69.7925 33.926 70.0011 33.2747C70.2098 32.6235 70.247 31.9295 70.1092 31.2597C69.9713 30.5899 69.6631 29.9669 69.2142 29.451C68.8777 29.0642 68.4706 28.7474 68.0164 28.5164C67.7646 28.3883 67.6235 28.0987 67.7182 27.8325Z" stroke="#F0B100" stroke-width="2" mask="url(#path-6-inside-1_12_1655)"/>
</svg>
