<svg width="22" height="22" viewBox="0 0 22 22" fill="none" xmlns="http://www.w3.org/2000/svg">
<path fill-rule="evenodd" clip-rule="evenodd" d="M5.5 22C3.67746 22 2.2 20.5224 2.2 18.6997L2.2 13.1993C0.984975 13.1993 0 12.2143 0 10.9991V8.79897C0 7.58385 0.984974 6.5988 2.2 6.5988H4.48163C3.17624 5.30712 2.85235 3.2493 3.92213 1.66316C5.13908 -0.141175 7.59751 -0.501868 9.38081 0.701076C9.92889 1.07079 10.3501 1.67823 10.6603 2.21796C10.7791 2.42472 10.8925 2.64136 11 2.86165C11.1075 2.64136 11.2209 2.42472 11.3397 2.21796C11.6499 1.67823 12.0711 1.07079 12.6192 0.701076C14.4025 -0.501868 16.8609 -0.141175 18.0779 1.66316C19.1476 3.2493 18.8238 5.30712 17.5184 6.5988H19.8C21.015 6.5988 22 7.58385 22 8.79897V10.9991C22 12.2143 21.015 13.1993 19.8 13.1993V18.6997C19.8 20.5224 18.3225 22 16.5 22H5.5ZM19.8 10.9991V8.79897H2.2V10.9991H19.8ZM12.1 13.1993H17.6V18.6997C17.6 19.3073 17.1075 19.7998 16.5 19.7998H12.1V13.1993ZM9.9 13.1993V19.7998H5.5C4.89249 19.7998 4.4 19.3073 4.4 18.6997V13.1993H9.9ZM6.30525 5.26114C5.44438 4.68043 5.26437 3.6076 5.74601 2.89348C6.22765 2.17937 7.28971 1.94439 8.15059 2.5251C8.26355 2.6013 8.47932 2.83824 8.75285 3.31424C9.00792 3.75811 9.25084 4.29775 9.46465 4.83803C9.56785 5.09881 9.6621 5.35417 9.74568 5.5915C9.49434 5.60291 9.22228 5.61118 8.94186 5.61317C8.36086 5.61731 7.76955 5.59421 7.26248 5.52397C6.71871 5.44865 6.41821 5.33734 6.30525 5.26114ZM16.254 2.89348C16.7356 3.6076 16.5556 4.68043 15.6948 5.26114C15.5818 5.33734 15.2813 5.44865 14.7375 5.52397C14.2305 5.59421 13.6391 5.61731 13.0581 5.61317C12.7777 5.61118 12.5057 5.60291 12.2543 5.5915C12.3379 5.35417 12.4321 5.09881 12.5353 4.83803C12.7492 4.29775 12.9921 3.75811 13.2472 3.31424C13.5207 2.83824 13.7365 2.6013 13.8494 2.5251C14.7103 1.94439 15.7723 2.17937 16.254 2.89348Z" fill="#1AB759"/>
</svg>
