<svg width="23" height="22" viewBox="0 0 23 22" fill="none" xmlns="http://www.w3.org/2000/svg">
<path d="M2.15527 3.66683C2.15527 2.65431 2.97608 1.8335 3.98861 1.8335H10.4053C11.4178 1.8335 12.2386 2.65431 12.2386 3.66683V5.50016C12.2386 6.00642 11.8282 6.41683 11.3219 6.41683C10.8157 6.41683 10.4053 6.00642 10.4053 5.50016V3.66683L3.98861 3.66683V18.3335H10.4053V16.5002C10.4053 15.9939 10.8157 15.5835 11.3219 15.5835C11.8282 15.5835 12.2386 15.9939 12.2386 16.5002V18.3335C12.2386 19.346 11.4178 20.1668 10.4053 20.1668H3.98861C2.97608 20.1668 2.15527 19.346 2.15527 18.3335V3.66683Z" fill="#E93C3C"/>
<path d="M17.3589 11.9168L15.2571 14.0186C14.8991 14.3766 14.8991 14.957 15.2571 15.315C15.6151 15.673 16.1955 15.673 16.5535 15.315L20.0905 11.778C20.5201 11.3484 20.5201 10.6519 20.0905 10.2223L16.5535 6.68531C16.1955 6.32733 15.6151 6.32733 15.2571 6.68531C14.8991 7.04329 14.8991 7.6237 15.2571 7.98168L17.3589 10.0835L7.65527 10.0835V11.9168L17.3589 11.9168Z" fill="#E93C3C"/>
</svg>
