<svg width="25" height="24" viewBox="0 0 25 24" fill="none" xmlns="http://www.w3.org/2000/svg">
<path fill-rule="evenodd" clip-rule="evenodd" d="M2.46885 15.8522C4.22127 13.6536 7.32488 12 12.5 12C17.6751 12 20.7787 13.6536 22.5312 15.8522C24.2248 17.9771 24.4946 20.4126 24.5 21.7603C24.5054 23.1155 23.243 24 21.9488 24H3.05122C1.75697 24 0.494601 23.1155 0.500017 21.7603C0.505404 20.4126 0.775163 17.9771 2.46885 15.8522Z" fill="#B3B3B3"/>
<path fill-rule="evenodd" clip-rule="evenodd" d="M12.5001 9.6C15.4457 9.6 17.8335 7.45097 17.8335 4.8C17.8335 2.14903 15.4457 0 12.5001 0C9.5546 0 7.16677 2.14903 7.16677 4.8C7.16677 7.45097 9.5546 9.6 12.5001 9.6Z" fill="#B3B3B3"/>
</svg>
