<svg width="28" height="28" viewBox="0 0 28 28" fill="none" xmlns="http://www.w3.org/2000/svg">
<path d="M13.8756 3.44408C12.9542 3.4704 12.0178 3.49673 11.7884 3.49673L11.3748 3.50425L11.732 3.62459C12.1419 3.76374 12.4353 3.93673 12.785 4.24135C13.3642 4.74904 13.7139 5.24169 14.5713 6.73469C14.8985 7.30256 15.1843 7.79521 15.2069 7.83282C15.2445 7.88547 15.4852 7.7576 17.2226 6.7535C18.3057 6.12546 19.2008 5.5952 19.2083 5.5764C19.2158 5.55383 19.0654 5.2793 18.8773 4.95964C18.3396 4.06083 17.9973 3.70733 17.4671 3.50049C17.2565 3.41775 17.1813 3.41023 16.3953 3.40271C15.929 3.39895 14.797 3.41775 13.8756 3.44408Z" fill="#1AB759"/>
<path d="M10.3518 3.81963C10.1074 3.89484 9.87046 4.04903 9.72755 4.22579C9.6561 4.31228 9.35524 4.78237 9.05815 5.2675C8.76481 5.75263 8.21575 6.64015 7.8472 7.24186C7.47489 7.83981 7.09882 8.44905 7.01232 8.59571C6.77164 8.98683 6.48959 9.64495 6.51967 9.75401C6.55728 9.90444 6.68514 10.0361 6.8619 10.1C7.0725 10.1827 7.18156 10.1564 7.38087 9.96461C7.47865 9.87435 7.56891 9.8217 7.61404 9.82546C7.69301 9.83674 7.69677 9.84803 7.64788 10.2354C7.62532 10.4309 7.62908 10.4497 7.7419 10.5814C7.87729 10.7318 8.0766 10.8145 8.22703 10.7769C8.27968 10.7656 8.40002 10.6867 8.49028 10.6039C8.75729 10.3557 8.80994 10.4159 8.74225 10.8973C8.71592 11.0853 8.71592 11.0966 8.84379 11.2244C8.97917 11.3598 9.23114 11.4538 9.34772 11.4087C9.38909 11.3974 9.49439 11.3185 9.58465 11.2395C9.79148 11.059 9.88926 11.0514 9.88926 11.2132C9.88926 11.2809 9.87046 11.3974 9.84789 11.4764C9.76892 11.7284 9.93063 11.954 10.2465 12.0405C10.4534 12.0969 10.5888 12.0067 10.852 11.6306C11.1265 11.2432 11.1228 11.247 12.6722 8.37383L13.8869 6.11741L13.7966 5.94818C13.6763 5.71878 13.2701 5.14716 13.0332 4.87639C12.5631 4.33108 11.9501 3.93245 11.4123 3.81963C11.0889 3.75194 10.5662 3.75194 10.3518 3.81963Z" fill="#1AB759"/>
<path d="M17.3365 6.90371C15.1665 8.15978 15.253 8.09585 15.3395 8.41175C15.3621 8.49072 15.426 8.61483 15.4824 8.67876C15.5689 8.7803 17.5809 10.0401 17.8479 10.1642C17.9194 10.1981 18.0811 10.1153 18.931 9.62646L19.9351 9.04731L19.9163 8.76525C19.905 8.61107 19.8862 7.98679 19.8712 7.38132C19.8562 6.59157 19.8336 6.24182 19.7997 6.15909C19.7283 5.98986 19.4613 5.75293 19.3409 5.75669C19.3259 5.75669 18.4233 6.27191 17.3365 6.90371ZM18.8032 7.14063C18.9611 7.29858 18.9912 7.47157 18.9912 8.19739C18.9912 8.94201 18.9611 9.0962 18.7768 9.25415C18.5549 9.4497 18.3293 9.40081 17.6749 9.02098C16.9642 8.60731 16.81 8.46064 16.81 8.19739C16.81 7.93038 16.9604 7.78371 17.6185 7.40388C18.1413 7.09926 18.2879 7.03909 18.5136 7.03909C18.664 7.03533 18.7129 7.05413 18.8032 7.14063Z" fill="#1AB759"/>
<path d="M19.7423 9.36338C19.6483 9.42356 19.2308 9.668 18.8134 9.90869L18.0537 10.3487L18.2267 10.6383C18.3207 10.7962 18.3997 10.9316 18.4072 10.9391C18.4185 10.9504 20.2349 9.90492 20.2763 9.86356C20.3026 9.83347 19.9754 9.25432 19.9378 9.25808C19.9228 9.25808 19.8363 9.30697 19.7423 9.36338Z" fill="#1AB759"/>
<path d="M19.3813 10.4539L18.4336 10.9992L18.5351 11.1797C18.6028 11.3038 18.6517 11.3527 18.6893 11.3377C18.7457 11.3189 20.4982 10.3148 20.5283 10.2847C20.5433 10.2696 20.3929 9.97255 20.3478 9.92742C20.3365 9.91614 19.9003 10.1531 19.3813 10.4539Z" fill="#1AB759"/>
<path d="M19.6484 10.8561C19.1745 11.1344 18.7608 11.3751 18.7345 11.3939C18.6931 11.4164 18.7082 11.4653 18.8022 11.6346C18.8661 11.7474 18.9414 11.864 18.9714 11.8865C19.0166 11.9241 19.1896 11.8376 19.8627 11.4503C20.7465 10.9463 20.833 10.8899 20.833 10.811C20.833 10.7357 20.5961 10.3446 20.5509 10.3484C20.5321 10.3484 20.126 10.5778 19.6484 10.8561Z" fill="#1AB759"/>
<path d="M22.094 11.3375C22.03 11.3639 21.9285 11.4428 21.8721 11.5143C21.7781 11.6234 21.7705 11.6572 21.7931 11.7926C21.842 12.0671 21.8345 12.2401 21.7743 12.2552C21.7442 12.2589 21.6352 12.1875 21.5336 12.0934C21.3869 11.9618 21.3193 11.9242 21.2177 11.9242C21.0447 11.9242 20.8492 12.022 20.7551 12.1574C20.6875 12.2514 20.6799 12.2965 20.7025 12.462C20.774 12.9509 20.7288 12.9922 20.4242 12.7328C20.2663 12.5974 20.1986 12.5635 20.0857 12.5635C19.9127 12.5635 19.7209 12.6839 19.6194 12.8569C19.5517 12.9697 19.5517 12.9885 19.6081 13.2104C19.6495 13.3796 19.657 13.4548 19.6269 13.4924C19.5668 13.5639 19.5517 13.5601 19.3336 13.3721C19.1794 13.2405 19.1042 13.2028 19.0027 13.2028C18.7544 13.2028 18.4649 13.4398 18.4649 13.6428C18.4611 13.8459 18.8974 14.6206 20.3415 16.9786L21.9059 19.5283L22.3384 19.5058C24.0495 19.4117 25.0311 18.9191 25.5275 17.9037C25.6554 17.6405 25.6667 17.5953 25.6667 17.2794C25.6667 16.941 25.6667 16.9372 25.4561 16.5273C25.3432 16.3017 25.0273 15.7112 24.7566 15.2148C24.4858 14.7184 23.9856 13.797 23.6471 13.1652C23.0191 11.9994 22.5979 11.3488 22.44 11.3075C22.3158 11.2736 22.2181 11.2811 22.094 11.3375Z" fill="#1AB759"/>
<path d="M6.74893 11.5896C6.67748 11.7137 6.61731 11.8265 6.61731 11.8415C6.62107 11.8754 8.42621 12.9133 8.47886 12.9133C8.52775 12.9133 8.75715 12.526 8.76091 12.4432C8.76091 12.4019 8.47886 12.2176 7.87715 11.8716C7.39201 11.5896 6.96706 11.3602 6.93697 11.3602C6.90688 11.3602 6.82415 11.4617 6.74893 11.5896Z" fill="#1AB759"/>
<path d="M6.45205 12.0934L6.35803 12.2627L6.44077 12.3153C6.60248 12.4169 8.23462 13.3533 8.24966 13.3533C8.29103 13.3533 8.46402 13.0035 8.43769 12.9772C8.37376 12.9246 6.62128 11.9242 6.58367 11.9242C6.56487 11.9242 6.5047 11.9994 6.45205 12.0934Z" fill="#1AB759"/>
<path d="M6.15117 12.624C6.05715 12.7857 5.9857 12.9248 5.99322 12.9286C5.99698 12.9323 6.42194 13.1805 6.94092 13.4814L7.87734 14.0229L8.0541 13.7183C8.15188 13.5491 8.22709 13.41 8.22333 13.4062C8.17444 13.3723 6.41818 12.3682 6.37681 12.3532C6.33921 12.3381 6.27151 12.4209 6.15117 12.624Z" fill="#1AB759"/>
<path d="M4.68083 13.7521C4.06031 14.1319 3.49997 14.493 3.43604 14.5569C3.27433 14.7111 3.18031 15.0571 3.26304 15.1849C3.27809 15.2075 4.18442 15.7453 5.27878 16.3771L7.2682 17.5278L7.40359 17.4601C7.4788 17.4225 7.58786 17.3172 7.65179 17.2307L7.76461 17.0728L7.78718 16.3319C7.80222 15.9258 7.81726 15.2789 7.81726 14.8953L7.82102 14.1996L6.83948 13.6355C6.3017 13.3234 5.85041 13.0677 5.83537 13.0677C5.82033 13.0639 5.30135 13.3723 4.68083 13.7521ZM6.65144 13.974C6.85076 14.0755 6.89589 14.2448 6.91093 14.9104C6.92974 15.6324 6.90341 15.8656 6.79059 16.0311C6.58751 16.3319 6.31674 16.3094 5.64357 15.9295C5.03058 15.5798 4.85758 15.4482 4.77109 15.2564C4.62066 14.9104 4.79365 14.7073 5.67366 14.2034C6.17759 13.9138 6.4258 13.8574 6.65144 13.974Z" fill="#1AB759"/>
<path d="M3.08995 15.5046C2.85303 15.8919 2.46567 16.6366 2.40174 16.8208C2.31525 17.0803 2.31148 17.2872 2.3867 17.5843C2.47696 17.9265 2.62362 18.1596 2.96961 18.5094C3.21029 18.7538 3.36448 18.8666 3.59012 18.987C4.14295 19.269 4.86124 19.427 5.72996 19.4533L6.13612 19.4646L6.64382 18.5921C6.92211 18.1107 7.14023 17.7046 7.12895 17.682C7.11014 17.6557 3.29679 15.4369 3.19149 15.3918C3.17645 15.3842 3.13132 15.4369 3.08995 15.5046Z" fill="#1AB759"/>
<path d="M2.63123 18.6071C2.63123 18.6146 3.04114 19.3667 3.54132 20.2843C4.03773 21.1982 4.58303 22.1985 4.74474 22.5069C5.29004 23.5411 5.57586 23.8946 6.04218 24.1165C6.37313 24.2745 6.76048 24.3233 7.87741 24.3534C8.41519 24.3647 9.60733 24.3986 10.5287 24.4286C12.4993 24.4888 12.9769 24.4625 13.1499 24.2857C13.2289 24.2068 13.2552 24.1428 13.2665 23.9623C13.2815 23.7442 13.2778 23.7292 13.1499 23.6013C13.0785 23.5298 12.9807 23.4697 12.9393 23.4697C12.8942 23.4697 12.8039 23.4433 12.7438 23.4095C12.5745 23.323 12.6159 23.2365 12.8603 23.1575C12.9844 23.1199 13.1123 23.0447 13.1762 22.9733C13.274 22.868 13.2815 22.8379 13.2665 22.6385C13.2477 22.3715 13.1537 22.255 12.9243 22.1948C12.5896 22.1121 12.5482 21.9804 12.8265 21.8902C13.2101 21.7698 13.2966 21.657 13.2665 21.3261C13.2439 21.0854 13.1725 21.0102 12.8716 20.9086C12.6723 20.8447 12.6309 20.8184 12.6422 20.7544C12.6535 20.6792 12.7889 20.6078 13.0221 20.5589C13.3154 20.4912 13.3643 19.8594 13.086 19.709C13.0446 19.6864 12.8227 19.6488 12.5896 19.6262C12.1571 19.5811 11.8261 19.5886 7.45245 19.7165C6.26407 19.7503 5.81278 19.7503 5.38406 19.7165C4.20696 19.6187 3.41721 19.3329 2.85311 18.8064C2.73276 18.6936 2.63123 18.6033 2.63123 18.6071Z" fill="#1AB759"/>
<path d="M25.2328 18.7912C24.9019 19.1259 24.3792 19.4155 23.8226 19.5697C23.2021 19.7389 23.014 19.7539 21.3142 19.7728L19.667 19.7916V22.1006V24.4097H20.3176C21.4157 24.4059 21.9798 24.2668 22.3785 23.8945C22.7508 23.5485 22.6868 23.6575 24.2927 20.6866C24.838 19.6825 25.3118 18.8063 25.3532 18.7386C25.3946 18.6746 25.4209 18.6182 25.4134 18.6182C25.4058 18.6182 25.3231 18.6972 25.2328 18.7912Z" fill="#1AB759"/>
<path d="M18.5354 19.7431C18.3812 19.8258 17.8246 20.1267 17.2981 20.4162L16.3391 20.9427V22.101V23.2631L17.5613 23.9287C18.7046 24.553 18.7948 24.5981 18.9829 24.5981C19.1107 24.5981 19.2349 24.5718 19.3289 24.5229L19.4793 24.4477L19.4718 22.1086L19.4605 19.7694L19.3326 19.6829C19.1258 19.5437 18.8776 19.5625 18.5354 19.7431ZM18.6745 21.0067C18.7196 21.0367 18.7873 21.1232 18.8249 21.2022C18.8889 21.3301 18.8964 21.4354 18.8964 22.1161C18.8964 22.9735 18.8776 23.0638 18.6407 23.2104C18.4639 23.3195 18.2872 23.2857 17.8058 23.0374C16.6964 22.4733 16.4745 22.1236 16.9559 21.6949C17.1627 21.5106 17.9713 21.0405 18.2082 20.9691C18.3812 20.9164 18.5504 20.9314 18.6745 21.0067Z" fill="#1AB759"/>
<path d="M14.3571 21.0291C14.2969 21.0629 14.2894 21.1569 14.2894 22.0933C14.2894 22.932 14.3007 23.1313 14.3421 23.1651C14.3759 23.1915 14.4963 23.2065 14.6504 23.199L14.9062 23.1877L14.8986 22.0971L14.8874 21.0065L14.6542 20.999C14.5263 20.9915 14.391 21.0065 14.3571 21.0291Z" fill="#1AB759"/>
<path d="M14.9662 22.0971V23.2065H15.173H15.3798V22.0971V20.9877H15.173H14.9662V22.0971Z" fill="#1AB759"/>
<path d="M15.4552 22.097V23.2102L15.8049 23.1989L16.1509 23.1876V22.097V21.0064L15.8049 20.9952L15.4552 20.9839V22.097Z" fill="#1AB759"/>
</svg>
